<?xml version="1.0" standalone="no"?>
<!DOCTYPE svg PUBLIC "-//W3C//DTD SVG 20010904//EN"
 "http://www.w3.org/TR/2001/REC-SVG-20010904/DTD/svg10.dtd">
<svg version="1.0" xmlns="http://www.w3.org/2000/svg"
 width="197.000000pt" height="167.000000pt" viewBox="0 0 197.000000 167.000000"
 preserveAspectRatio="xMidYMid meet">

<g transform="translate(0.000000,167.000000) scale(0.100000,-0.100000)"
fill="#000000" stroke="none">
<path d="M984 1570 c0 -52 1 -74 3 -47 2 26 2 68 0 95 -2 26 -3 4 -3 -48z"/>
<path d="M880 1280 c-24 -8 -24 -8 7 -9 17 -1 40 -4 50 -7 14 -5 15 -4 4 4
-11 8 -9 11 10 15 17 3 14 4 -11 5 -19 0 -46 -4 -60 -8z"/>
<path d="M1001 1286 c3 -3 34 -10 69 -15 94 -15 196 -69 260 -137 l54 -57 -34
-17 c-20 -10 -29 -20 -22 -24 7 -4 20 -2 31 4 11 5 24 10 30 10 27 0 59 -193
37 -228 -13 -21 -100 -53 -201 -74 -131 -28 -342 -29 -468 -4 -94 18 -183 49
-205 70 -18 18 -17 131 3 185 16 47 12 72 -5 27 -5 -15 -10 -32 -10 -37 0 -18
-17 -9 -28 15 -9 21 -8 25 6 29 10 3 6 5 -10 6 l-27 1 24 -46 c20 -37 23 -55
18 -92 -3 -26 -10 -53 -16 -59 -6 -9 -4 -21 7 -37 14 -23 14 -25 -2 -30 -13
-4 -12 -4 3 -3 11 1 40 -8 65 -21 83 -40 198 -56 405 -56 210 0 338 18 410 58
33 18 46 20 73 12 17 -5 32 -13 32 -18 0 -5 4 -6 10 -3 5 3 24 -1 42 -10 29
-14 31 -14 13 0 -10 8 -43 23 -71 32 -52 16 -52 16 -37 40 10 14 25 23 42 23
14 0 33 5 41 10 11 8 1 10 -35 8 l-50 -3 -3 63 c-2 50 1 70 18 98 l22 34 -24
0 c-15 0 -19 -3 -11 -8 10 -7 10 -12 -1 -28 -8 -10 -16 -17 -18 -14 -2 3 -17
31 -33 63 -53 103 -155 183 -284 221 -50 14 -131 22 -120 12z m-456 -486 c10
-11 16 -20 13 -20 -3 0 -13 9 -23 20 -10 11 -16 20 -13 20 3 0 13 -9 23 -20z
m100 -50 c3 -5 1 -10 -4 -10 -6 0 -11 5 -11 10 0 6 2 10 4 10 3 0 8 -4 11 -10z
m62 -16 c-3 -3 -12 -4 -19 -1 -8 3 -5 6 6 6 11 1 17 -2 13 -5z"/>
<path d="M930 1240 c-19 -10 -51 -36 -70 -57 l-35 -38 40 36 c22 20 55 44 73
53 17 9 32 19 32 21 0 7 0 7 -40 -15z"/>
<path d="M1000 1251 c0 -5 -6 -11 -12 -14 -7 -2 -3 -2 10 0 29 5 58 -11 103
-54 23 -22 36 -29 36 -19 0 8 -3 13 -7 11 -4 -2 -18 7 -31 21 -27 30 -99 69
-99 55z"/>
<path d="M748 1234 c-39 -21 -35 -28 5 -8 37 19 44 24 31 24 -5 -1 -21 -8 -36
-16z"/>
<path d="M689 1193 c-13 -16 -12 -17 4 -4 9 7 17 15 17 17 0 8 -8 3 -21 -13z"/>
<path d="M634 1148 l-29 -33 33 29 c30 28 37 36 29 36 -2 0 -16 -15 -33 -32z"/>
<path d="M811 1122 c-17 -31 -13 -40 5 -14 9 13 14 26 11 29 -3 2 -10 -4 -16
-15z"/>
<path d="M1146 1127 c3 -10 9 -15 12 -12 3 3 0 11 -7 18 -10 9 -11 8 -5 -6z"/>
<path d="M576 1071 c-3 -5 1 -11 9 -14 9 -4 12 -1 8 9 -6 16 -10 17 -17 5z"/>
<path d="M612 1051 c2 -7 7 -12 11 -12 12 1 9 15 -3 20 -7 2 -11 -2 -8 -8z"/>
<path d="M665 1030 c27 -12 43 -12 25 0 -8 5 -22 9 -30 9 -10 0 -8 -3 5 -9z"/>
<path d="M1263 1033 c-13 -2 -23 -8 -23 -13 0 -5 14 -5 31 0 55 16 50 24 -8
13z"/>
<path d="M413 1023 c9 -2 25 -2 35 0 9 3 1 5 -18 5 -19 0 -27 -2 -17 -5z"/>
<path d="M763 1022 c-35 -5 -27 -19 7 -14 17 2 38 -2 47 -9 11 -10 14 -10 9
-2 -11 19 -38 30 -63 25z"/>
<path d="M1523 1023 c9 -2 23 -2 30 0 6 3 -1 5 -18 5 -16 0 -22 -2 -12 -5z"/>
<path d="M358 1013 c6 -2 18 -2 25 0 6 3 1 5 -13 5 -14 0 -19 -2 -12 -5z"/>
<path d="M1170 1016 c0 -2 14 -6 30 -8 17 -3 30 -1 30 4 0 4 -13 8 -30 8 -16
0 -30 -2 -30 -4z"/>
<path d="M1588 1013 c6 -2 18 -2 25 0 6 3 1 5 -13 5 -14 0 -19 -2 -12 -5z"/>
<path d="M240 990 c-72 -24 -53 -24 35 0 39 10 59 19 45 19 -14 0 -50 -8 -80
-19z"/>
<path d="M858 1003 c12 -2 32 -2 45 0 12 2 2 4 -23 4 -25 0 -35 -2 -22 -4z"/>
<path d="M1078 1003 c12 -2 30 -2 40 0 9 3 -1 5 -23 4 -22 0 -30 -2 -17 -4z"/>
<path d="M1638 1003 c6 -2 18 -2 25 0 6 3 1 5 -13 5 -14 0 -19 -2 -12 -5z"/>
<path d="M638 994 c28 -13 7 -82 -22 -71 -9 4 -16 2 -16 -4 0 -22 34 -22 52 1
24 30 20 74 -7 77 -11 2 -14 0 -7 -3z"/>
<path d="M1307 993 c-25 -24 16 -102 46 -90 18 7 24 61 9 71 -5 3 -7 -8 -4
-23 5 -38 -13 -48 -33 -17 -13 19 -14 29 -5 45 10 20 1 29 -13 14z"/>
<path d="M1735 980 c33 -11 65 -19 70 -19 17 1 -89 37 -110 38 -11 0 7 -9 40
-19z"/>
<path d="M605 969 c-4 -6 -5 -12 -2 -15 2 -3 7 2 10 11 7 17 1 20 -8 4z"/>
<path d="M120 950 c-8 -5 -10 -10 -5 -10 6 0 17 5 25 10 8 5 11 10 5 10 -5 0
-17 -5 -25 -10z"/>
<path d="M822 938 c-17 -17 -15 -64 4 -82 47 -48 116 14 84 75 -12 22 -68 27
-88 7z m72 -20 c19 -27 5 -58 -27 -58 -43 0 -60 35 -31 64 21 22 40 20 58 -6z"/>
<path d="M1066 934 c-34 -33 -9 -94 38 -94 44 0 68 48 46 91 -13 23 -62 26
-84 3z m64 -8 c19 -23 8 -61 -18 -64 -44 -7 -67 32 -36 62 19 20 38 20 54 2z"/>
<path d="M59 915 c-49 -32 -66 -75 -25 -59 14 5 15 9 4 16 -10 7 -9 12 7 23
67 47 78 64 14 20z"/>
<path d="M1933 896 c12 -16 8 -26 -10 -27 -15 0 -15 -2 2 -9 40 -17 47 -6 18
27 -10 10 -15 14 -10 9z"/>
<path d="M120 873 c30 -3 57 -8 60 -12 3 -5 11 -3 18 5 11 12 2 14 -60 12 -67
-2 -68 -2 -18 -5z"/>
<path d="M1763 873 c9 -2 17 -10 17 -16 0 -9 2 -9 8 0 4 6 32 13 62 16 41 2
35 3 -25 4 -44 0 -72 -1 -62 -4z"/>
<path d="M1708 863 c6 -2 18 -2 25 0 6 3 1 5 -13 5 -14 0 -19 -2 -12 -5z"/>
<path d="M353 853 c9 -2 23 -2 30 0 6 3 -1 5 -18 5 -16 0 -22 -2 -12 -5z"/>
<path d="M1583 853 c9 -2 23 -2 30 0 6 3 -1 5 -18 5 -16 0 -22 -2 -12 -5z"/>
<path d="M400 846 c0 -2 15 -6 34 -8 19 -2 32 0 30 4 -5 8 -64 12 -64 4z"/>
<path d="M10 815 c0 -19 35 -68 72 -100 83 -71 240 -128 442 -161 73 -12 106
-21 106 -31 0 -7 5 -13 10 -13 6 0 10 5 10 10 0 17 85 11 132 -10 25 -11 69
-25 98 -31 46 -10 54 -9 62 5 13 24 78 22 85 -3 4 -18 7 -17 75 1 39 10 83 25
99 33 32 17 105 20 114 5 9 -15 25 -12 25 4 0 10 17 16 53 21 161 20 388 89
447 136 15 12 -4 6 -50 -15 -95 -44 -219 -80 -352 -102 -134 -22 -633 -31
-792 -15 -140 15 -317 54 -406 90 -60 25 -170 87 -170 96 0 2 32 -10 71 -27
181 -76 440 -110 844 -110 432 0 709 40 880 125 l40 20 -20 -24 c-18 -22 -19
-23 -1 -9 23 18 76 89 76 102 0 5 -11 -3 -24 -19 -55 -65 -225 -121 -481 -160
-173 -25 -754 -26 -935 0 -183 26 -187 28 -157 67 6 9 2 5 -11 -8 l-23 -24
-72 17 c-95 23 -190 69 -222 106 -14 17 -25 28 -25 24z m1120 -310 c-42 -16
-96 -19 -105 -5 -3 6 -21 10 -40 10 -19 0 -37 -4 -40 -10 -9 -14 -63 -11 -105
5 -31 12 -17 13 145 13 162 0 176 -1 145 -13z"/>
<path d="M433 750 c-24 -10 -43 -22 -43 -25 0 -3 14 2 30 10 17 9 34 14 38 11
4 -2 13 2 20 10 17 19 5 17 -45 -6z"/>
<path d="M1012 425 c-13 -27 -31 -32 -51 -12 -11 9 -10 7 0 -10 8 -13 19 -23
24 -23 12 0 50 59 43 66 -3 2 -10 -7 -16 -21z"/>
<path d="M981 24 c0 -11 3 -14 6 -6 3 7 2 16 -1 19 -3 4 -6 -2 -5 -13z"/>
</g>
</svg>
